<?xml version="1.0" encoding="utf-8" standalone="no"?>
<!DOCTYPE svg PUBLIC "-//W3C//DTD SVG 1.1//EN"
  "http://www.w3.org/Graphics/SVG/1.1/DTD/svg11.dtd">
<!-- Created with matplotlib (http://matplotlib.org/) -->
<svg height="144pt" version="1.1" viewBox="0 0 288 144" width="288pt" xmlns="http://www.w3.org/2000/svg" xmlns:xlink="http://www.w3.org/1999/xlink">
 <defs>
  <style type="text/css">
*{stroke-linecap:butt;stroke-linejoin:round;}
  </style>
 </defs>
 <g id="figure_1">
  <g id="patch_1">
   <path d="M 0 144 
L 288 144 
L 288 0 
L 0 0 
z
" style="fill:#ffffff;"/>
  </g>
  <g id="axes_1">
   <g id="patch_2">
    <path d="M 44.66 102.04 
L 274.68 102.04 
L 274.68 14.76 
L 44.66 14.76 
z
" style="fill:#ffffff;"/>
   </g>
   <g id="matplotlib.axis_1">
    <g id="xtick_1">
     <g id="line2d_1">
      <defs>
       <path d="M 0 0 
L 0 3.5 
" id="m7604a93686" style="stroke:#000000;stroke-width:0.8;"/>
      </defs>
      <g>
       <use style="stroke:#000000;stroke-width:0.8;" x="51.565215" xlink:href="#m7604a93686" y="102.04"/>
      </g>
     </g>
     <g id="text_1">
      <!-- 0 -->
      <defs>
       <path d="M 31.78125 66.40625 
Q 24.171875 66.40625 20.328125 58.90625 
Q 16.5 51.421875 16.5 36.375 
Q 16.5 21.390625 20.328125 13.890625 
Q 24.171875 6.390625 31.78125 6.390625 
Q 39.453125 6.390625 43.28125 13.890625 
Q 47.125 21.390625 47.125 36.375 
Q 47.125 51.421875 43.28125 58.90625 
Q 39.453125 66.40625 31.78125 66.40625 
z
M 31.78125 74.21875 
Q 44.046875 74.21875 50.515625 64.515625 
Q 56.984375 54.828125 56.984375 36.375 
Q 56.984375 17.96875 50.515625 8.265625 
Q 44.046875 -1.421875 31.78125 -1.421875 
Q 19.53125 -1.421875 13.0625 8.265625 
Q 6.59375 17.96875 6.59375 36.375 
Q 6.59375 54.828125 13.0625 64.515625 
Q 19.53125 74.21875 31.78125 74.21875 
z
" id="DejaVuSans-30"/>
      </defs>
      <g transform="translate(48.383965 116.638437)scale(0.1 -0.1)">
       <use xlink:href="#DejaVuSans-30"/>
      </g>
     </g>
    </g>
    <g id="xtick_2">
     <g id="line2d_2">
      <g>
       <use style="stroke:#000000;stroke-width:0.8;" x="87.067608" xlink:href="#m7604a93686" y="102.04"/>
      </g>
     </g>
     <g id="text_2">
      <!-- 50 -->
      <defs>
       <path d="M 10.796875 72.90625 
L 49.515625 72.90625 
L 49.515625 64.59375 
L 19.828125 64.59375 
L 19.828125 46.734375 
Q 21.96875 47.46875 24.109375 47.828125 
Q 26.265625 48.1875 28.421875 48.1875 
Q 40.625 48.1875 47.75 41.5 
Q 54.890625 34.8125 54.890625 23.390625 
Q 54.890625 11.625 47.5625 5.09375 
Q 40.234375 -1.421875 26.90625 -1.421875 
Q 22.3125 -1.421875 17.546875 -0.640625 
Q 12.796875 0.140625 7.71875 1.703125 
L 7.71875 11.625 
Q 12.109375 9.234375 16.796875 8.0625 
Q 21.484375 6.890625 26.703125 6.890625 
Q 35.15625 6.890625 40.078125 11.328125 
Q 45.015625 15.765625 45.015625 23.390625 
Q 45.015625 31 40.078125 35.4375 
Q 35.15625 39.890625 26.703125 39.890625 
Q 22.75 39.890625 18.8125 39.015625 
Q 14.890625 38.140625 10.796875 36.28125 
z
" id="DejaVuSans-35"/>
      </defs>
      <g transform="translate(80.705108 116.638437)scale(0.1 -0.1)">
       <use xlink:href="#DejaVuSans-35"/>
       <use x="63.623047" xlink:href="#DejaVuSans-30"/>
      </g>
     </g>
    </g>
    <g id="xtick_3">
     <g id="line2d_3">
      <g>
       <use style="stroke:#000000;stroke-width:0.8;" x="122.57" xlink:href="#m7604a93686" y="102.04"/>
      </g>
     </g>
     <g id="text_3">
      <!-- 100 -->
      <defs>
       <path d="M 12.40625 8.296875 
L 28.515625 8.296875 
L 28.515625 63.921875 
L 10.984375 60.40625 
L 10.984375 69.390625 
L 28.421875 72.90625 
L 38.28125 72.90625 
L 38.28125 8.296875 
L 54.390625 8.296875 
L 54.390625 0 
L 12.40625 0 
z
" id="DejaVuSans-31"/>
      </defs>
      <g transform="translate(113.02625 116.638437)scale(0.1 -0.1)">
       <use xlink:href="#DejaVuSans-31"/>
       <use x="63.623047" xlink:href="#DejaVuSans-30"/>
       <use x="127.246094" xlink:href="#DejaVuSans-30"/>
      </g>
     </g>
    </g>
    <g id="xtick_4">
     <g id="line2d_4">
      <g>
       <use style="stroke:#000000;stroke-width:0.8;" x="158.072392" xlink:href="#m7604a93686" y="102.04"/>
      </g>
     </g>
     <g id="text_4">
      <!-- 150 -->
      <g transform="translate(148.528642 116.638437)scale(0.1 -0.1)">
       <use xlink:href="#DejaVuSans-31"/>
       <use x="63.623047" xlink:href="#DejaVuSans-35"/>
       <use x="127.246094" xlink:href="#DejaVuSans-30"/>
      </g>
     </g>
    </g>
    <g id="xtick_5">
     <g id="line2d_5">
      <g>
       <use style="stroke:#000000;stroke-width:0.8;" x="193.574785" xlink:href="#m7604a93686" y="102.04"/>
      </g>
     </g>
     <g id="text_5">
      <!-- 200 -->
      <defs>
       <path d="M 19.1875 8.296875 
L 53.609375 8.296875 
L 53.609375 0 
L 7.328125 0 
L 7.328125 8.296875 
Q 12.9375 14.109375 22.625 23.890625 
Q 32.328125 33.6875 34.8125 36.53125 
Q 39.546875 41.84375 41.421875 45.53125 
Q 43.3125 49.21875 43.3125 52.78125 
Q 43.3125 58.59375 39.234375 62.25 
Q 35.15625 65.921875 28.609375 65.921875 
Q 23.96875 65.921875 18.8125 64.3125 
Q 13.671875 62.703125 7.8125 59.421875 
L 7.8125 69.390625 
Q 13.765625 71.78125 18.9375 73 
Q 24.125 74.21875 28.421875 74.21875 
Q 39.75 74.21875 46.484375 68.546875 
Q 53.21875 62.890625 53.21875 53.421875 
Q 53.21875 48.921875 51.53125 44.890625 
Q 49.859375 40.875 45.40625 35.40625 
Q 44.1875 33.984375 37.640625 27.21875 
Q 31.109375 20.453125 19.1875 8.296875 
z
" id="DejaVuSans-32"/>
      </defs>
      <g transform="translate(184.031035 116.638437)scale(0.1 -0.1)">
       <use xlink:href="#DejaVuSans-32"/>
       <use x="63.623047" xlink:href="#DejaVuSans-30"/>
       <use x="127.246094" xlink:href="#DejaVuSans-30"/>
      </g>
     </g>
    </g>
    <g id="xtick_6">
     <g id="line2d_6">
      <g>
       <use style="stroke:#000000;stroke-width:0.8;" x="229.077177" xlink:href="#m7604a93686" y="102.04"/>
      </g>
     </g>
     <g id="text_6">
      <!-- 250 -->
      <g transform="translate(219.533427 116.638437)scale(0.1 -0.1)">
       <use xlink:href="#DejaVuSans-32"/>
       <use x="63.623047" xlink:href="#DejaVuSans-35"/>
       <use x="127.246094" xlink:href="#DejaVuSans-30"/>
      </g>
     </g>
    </g>
    <g id="xtick_7">
     <g id="line2d_7">
      <g>
       <use style="stroke:#000000;stroke-width:0.8;" x="264.579569" xlink:href="#m7604a93686" y="102.04"/>
      </g>
     </g>
     <g id="text_7">
      <!-- 300 -->
      <defs>
       <path d="M 40.578125 39.3125 
Q 47.65625 37.796875 51.625 33 
Q 55.609375 28.21875 55.609375 21.1875 
Q 55.609375 10.40625 48.1875 4.484375 
Q 40.765625 -1.421875 27.09375 -1.421875 
Q 22.515625 -1.421875 17.65625 -0.515625 
Q 12.796875 0.390625 7.625 2.203125 
L 7.625 11.71875 
Q 11.71875 9.328125 16.59375 8.109375 
Q 21.484375 6.890625 26.8125 6.890625 
Q 36.078125 6.890625 40.9375 10.546875 
Q 45.796875 14.203125 45.796875 21.1875 
Q 45.796875 27.640625 41.28125 31.265625 
Q 36.765625 34.90625 28.71875 34.90625 
L 20.21875 34.90625 
L 20.21875 43.015625 
L 29.109375 43.015625 
Q 36.375 43.015625 40.234375 45.921875 
Q 44.09375 48.828125 44.09375 54.296875 
Q 44.09375 59.90625 40.109375 62.90625 
Q 36.140625 65.921875 28.71875 65.921875 
Q 24.65625 65.921875 20.015625 65.03125 
Q 15.375 64.15625 9.8125 62.3125 
L 9.8125 71.09375 
Q 15.4375 72.65625 20.34375 73.4375 
Q 25.25 74.21875 29.59375 74.21875 
Q 40.828125 74.21875 47.359375 69.109375 
Q 53.90625 64.015625 53.90625 55.328125 
Q 53.90625 49.265625 50.4375 45.09375 
Q 46.96875 40.921875 40.578125 39.3125 
z
" id="DejaVuSans-33"/>
      </defs>
      <g transform="translate(255.035819 116.638437)scale(0.1 -0.1)">
       <use xlink:href="#DejaVuSans-33"/>
       <use x="63.623047" xlink:href="#DejaVuSans-30"/>
       <use x="127.246094" xlink:href="#DejaVuSans-30"/>
      </g>
     </g>
    </g>
    <g id="text_8">
     <!-- Time (s) -->
     <defs>
      <path d="M -0.296875 72.90625 
L 61.375 72.90625 
L 61.375 64.59375 
L 35.5 64.59375 
L 35.5 0 
L 25.59375 0 
L 25.59375 64.59375 
L -0.296875 64.59375 
z
" id="DejaVuSans-54"/>
      <path d="M 9.421875 54.6875 
L 18.40625 54.6875 
L 18.40625 0 
L 9.421875 0 
z
M 9.421875 75.984375 
L 18.40625 75.984375 
L 18.40625 64.59375 
L 9.421875 64.59375 
z
" id="DejaVuSans-69"/>
      <path d="M 52 44.1875 
Q 55.375 50.25 60.0625 53.125 
Q 64.75 56 71.09375 56 
Q 79.640625 56 84.28125 50.015625 
Q 88.921875 44.046875 88.921875 33.015625 
L 88.921875 0 
L 79.890625 0 
L 79.890625 32.71875 
Q 79.890625 40.578125 77.09375 44.375 
Q 74.3125 48.1875 68.609375 48.1875 
Q 61.625 48.1875 57.5625 43.546875 
Q 53.515625 38.921875 53.515625 30.90625 
L 53.515625 0 
L 44.484375 0 
L 44.484375 32.71875 
Q 44.484375 40.625 41.703125 44.40625 
Q 38.921875 48.1875 33.109375 48.1875 
Q 26.21875 48.1875 22.15625 43.53125 
Q 18.109375 38.875 18.109375 30.90625 
L 18.109375 0 
L 9.078125 0 
L 9.078125 54.6875 
L 18.109375 54.6875 
L 18.109375 46.1875 
Q 21.1875 51.21875 25.484375 53.609375 
Q 29.78125 56 35.6875 56 
Q 41.65625 56 45.828125 52.96875 
Q 50 49.953125 52 44.1875 
z
" id="DejaVuSans-6d"/>
      <path d="M 56.203125 29.59375 
L 56.203125 25.203125 
L 14.890625 25.203125 
Q 15.484375 15.921875 20.484375 11.0625 
Q 25.484375 6.203125 34.421875 6.203125 
Q 39.59375 6.203125 44.453125 7.46875 
Q 49.3125 8.734375 54.109375 11.28125 
L 54.109375 2.78125 
Q 49.265625 0.734375 44.1875 -0.34375 
Q 39.109375 -1.421875 33.890625 -1.421875 
Q 20.796875 -1.421875 13.15625 6.1875 
Q 5.515625 13.8125 5.515625 26.8125 
Q 5.515625 40.234375 12.765625 48.109375 
Q 20.015625 56 32.328125 56 
Q 43.359375 56 49.78125 48.890625 
Q 56.203125 41.796875 56.203125 29.59375 
z
M 47.21875 32.234375 
Q 47.125 39.59375 43.09375 43.984375 
Q 39.0625 48.390625 32.421875 48.390625 
Q 24.90625 48.390625 20.390625 44.140625 
Q 15.875 39.890625 15.1875 32.171875 
z
" id="DejaVuSans-65"/>
      <path id="DejaVuSans-20"/>
      <path d="M 31 75.875 
Q 24.46875 64.65625 21.28125 53.65625 
Q 18.109375 42.671875 18.109375 31.390625 
Q 18.109375 20.125 21.3125 9.0625 
Q 24.515625 -2 31 -13.1875 
L 23.1875 -13.1875 
Q 15.875 -1.703125 12.234375 9.375 
Q 8.59375 20.453125 8.59375 31.390625 
Q 8.59375 42.28125 12.203125 53.3125 
Q 15.828125 64.359375 23.1875 75.875 
z
" id="DejaVuSans-28"/>
      <path d="M 44.28125 53.078125 
L 44.28125 44.578125 
Q 40.484375 46.53125 36.375 47.5 
Q 32.28125 48.484375 27.875 48.484375 
Q 21.1875 48.484375 17.84375 46.4375 
Q 14.5 44.390625 14.5 40.28125 
Q 14.5 37.15625 16.890625 35.375 
Q 19.28125 33.59375 26.515625 31.984375 
L 29.59375 31.296875 
Q 39.15625 29.25 43.1875 25.515625 
Q 47.21875 21.78125 47.21875 15.09375 
Q 47.21875 7.46875 41.1875 3.015625 
Q 35.15625 -1.421875 24.609375 -1.421875 
Q 20.21875 -1.421875 15.453125 -0.5625 
Q 10.6875 0.296875 5.421875 2 
L 5.421875 11.28125 
Q 10.40625 8.6875 15.234375 7.390625 
Q 20.0625 6.109375 24.8125 6.109375 
Q 31.15625 6.109375 34.5625 8.28125 
Q 37.984375 10.453125 37.984375 14.40625 
Q 37.984375 18.0625 35.515625 20.015625 
Q 33.0625 21.96875 24.703125 23.78125 
L 21.578125 24.515625 
Q 13.234375 26.265625 9.515625 29.90625 
Q 5.8125 33.546875 5.8125 39.890625 
Q 5.8125 47.609375 11.28125 51.796875 
Q 16.75 56 26.8125 56 
Q 31.78125 56 36.171875 55.265625 
Q 40.578125 54.546875 44.28125 53.078125 
z
" id="DejaVuSans-73"/>
      <path d="M 8.015625 75.875 
L 15.828125 75.875 
Q 23.140625 64.359375 26.78125 53.3125 
Q 30.421875 42.28125 30.421875 31.390625 
Q 30.421875 20.453125 26.78125 9.375 
Q 23.140625 -1.703125 15.828125 -13.1875 
L 8.015625 -13.1875 
Q 14.5 -2 17.703125 9.0625 
Q 20.90625 20.125 20.90625 31.390625 
Q 20.90625 42.671875 17.703125 53.65625 
Q 14.5 64.65625 8.015625 75.875 
z
" id="DejaVuSans-29"/>
     </defs>
     <g transform="translate(139.187188 130.316563)scale(0.1 -0.1)">
      <use xlink:href="#DejaVuSans-54"/>
      <use x="61.037109" xlink:href="#DejaVuSans-69"/>
      <use x="88.820312" xlink:href="#DejaVuSans-6d"/>
      <use x="186.232422" xlink:href="#DejaVuSans-65"/>
      <use x="247.755859" xlink:href="#DejaVuSans-20"/>
      <use x="279.542969" xlink:href="#DejaVuSans-28"/>
      <use x="318.556641" xlink:href="#DejaVuSans-73"/>
      <use x="370.65625" xlink:href="#DejaVuSans-29"/>
     </g>
    </g>
   </g>
   <g id="matplotlib.axis_2">
    <g id="ytick_1">
     <g id="line2d_8">
      <defs>
       <path d="M 0 0 
L -3.5 0 
" id="mfaeba00360" style="stroke:#000000;stroke-width:0.8;"/>
      </defs>
      <g>
       <use style="stroke:#000000;stroke-width:0.8;" x="44.66" xlink:href="#mfaeba00360" y="96.585"/>
      </g>
     </g>
     <g id="text_9">
      <!-- 0 -->
      <g transform="translate(31.2975 100.384219)scale(0.1 -0.1)">
       <use xlink:href="#DejaVuSans-30"/>
      </g>
     </g>
    </g>
    <g id="ytick_2">
     <g id="line2d_9">
      <g>
       <use style="stroke:#000000;stroke-width:0.8;" x="44.66" xlink:href="#mfaeba00360" y="69.31"/>
      </g>
     </g>
     <g id="text_10">
      <!-- 5 -->
      <g transform="translate(31.2975 73.109219)scale(0.1 -0.1)">
       <use xlink:href="#DejaVuSans-35"/>
      </g>
     </g>
    </g>
    <g id="ytick_3">
     <g id="line2d_10">
      <g>
       <use style="stroke:#000000;stroke-width:0.8;" x="44.66" xlink:href="#mfaeba00360" y="42.035"/>
      </g>
     </g>
     <g id="text_11">
      <!-- 10 -->
      <g transform="translate(24.935 45.834219)scale(0.1 -0.1)">
       <use xlink:href="#DejaVuSans-31"/>
       <use x="63.623047" xlink:href="#DejaVuSans-30"/>
      </g>
     </g>
    </g>
    <g id="ytick_4">
     <g id="line2d_11">
      <g>
       <use style="stroke:#000000;stroke-width:0.8;" x="44.66" xlink:href="#mfaeba00360" y="14.76"/>
      </g>
     </g>
     <g id="text_12">
      <!-- 15 -->
      <g transform="translate(24.935 18.559219)scale(0.1 -0.1)">
       <use xlink:href="#DejaVuSans-31"/>
       <use x="63.623047" xlink:href="#DejaVuSans-35"/>
      </g>
     </g>
    </g>
    <g id="text_13">
     <!-- FRET Index -->
     <defs>
      <path d="M 9.8125 72.90625 
L 51.703125 72.90625 
L 51.703125 64.59375 
L 19.671875 64.59375 
L 19.671875 43.109375 
L 48.578125 43.109375 
L 48.578125 34.8125 
L 19.671875 34.8125 
L 19.671875 0 
L 9.8125 0 
z
" id="DejaVuSans-46"/>
      <path d="M 44.390625 34.1875 
Q 47.5625 33.109375 50.5625 29.59375 
Q 53.5625 26.078125 56.59375 19.921875 
L 66.609375 0 
L 56 0 
L 46.6875 18.703125 
Q 43.0625 26.03125 39.671875 28.421875 
Q 36.28125 30.8125 30.421875 30.8125 
L 19.671875 30.8125 
L 19.671875 0 
L 9.8125 0 
L 9.8125 72.90625 
L 32.078125 72.90625 
Q 44.578125 72.90625 50.734375 67.671875 
Q 56.890625 62.453125 56.890625 51.90625 
Q 56.890625 45.015625 53.6875 40.46875 
Q 50.484375 35.9375 44.390625 34.1875 
z
M 19.671875 64.796875 
L 19.671875 38.921875 
L 32.078125 38.921875 
Q 39.203125 38.921875 42.84375 42.21875 
Q 46.484375 45.515625 46.484375 51.90625 
Q 46.484375 58.296875 42.84375 61.546875 
Q 39.203125 64.796875 32.078125 64.796875 
z
" id="DejaVuSans-52"/>
      <path d="M 9.8125 72.90625 
L 55.90625 72.90625 
L 55.90625 64.59375 
L 19.671875 64.59375 
L 19.671875 43.015625 
L 54.390625 43.015625 
L 54.390625 34.71875 
L 19.671875 34.71875 
L 19.671875 8.296875 
L 56.78125 8.296875 
L 56.78125 0 
L 9.8125 0 
z
" id="DejaVuSans-45"/>
      <path d="M 9.8125 72.90625 
L 19.671875 72.90625 
L 19.671875 0 
L 9.8125 0 
z
" id="DejaVuSans-49"/>
      <path d="M 54.890625 33.015625 
L 54.890625 0 
L 45.90625 0 
L 45.90625 32.71875 
Q 45.90625 40.484375 42.875 44.328125 
Q 39.84375 48.1875 33.796875 48.1875 
Q 26.515625 48.1875 22.3125 43.546875 
Q 18.109375 38.921875 18.109375 30.90625 
L 18.109375 0 
L 9.078125 0 
L 9.078125 54.6875 
L 18.109375 54.6875 
L 18.109375 46.1875 
Q 21.34375 51.125 25.703125 53.5625 
Q 30.078125 56 35.796875 56 
Q 45.21875 56 50.046875 50.171875 
Q 54.890625 44.34375 54.890625 33.015625 
z
" id="DejaVuSans-6e"/>
      <path d="M 45.40625 46.390625 
L 45.40625 75.984375 
L 54.390625 75.984375 
L 54.390625 0 
L 45.40625 0 
L 45.40625 8.203125 
Q 42.578125 3.328125 38.25 0.953125 
Q 33.9375 -1.421875 27.875 -1.421875 
Q 17.96875 -1.421875 11.734375 6.484375 
Q 5.515625 14.40625 5.515625 27.296875 
Q 5.515625 40.1875 11.734375 48.09375 
Q 17.96875 56 27.875 56 
Q 33.9375 56 38.25 53.625 
Q 42.578125 51.265625 45.40625 46.390625 
z
M 14.796875 27.296875 
Q 14.796875 17.390625 18.875 11.75 
Q 22.953125 6.109375 30.078125 6.109375 
Q 37.203125 6.109375 41.296875 11.75 
Q 45.40625 17.390625 45.40625 27.296875 
Q 45.40625 37.203125 41.296875 42.84375 
Q 37.203125 48.484375 30.078125 48.484375 
Q 22.953125 48.484375 18.875 42.84375 
Q 14.796875 37.203125 14.796875 27.296875 
z
" id="DejaVuSans-64"/>
      <path d="M 54.890625 54.6875 
L 35.109375 28.078125 
L 55.90625 0 
L 45.3125 0 
L 29.390625 21.484375 
L 13.484375 0 
L 2.875 0 
L 24.125 28.609375 
L 4.6875 54.6875 
L 15.28125 54.6875 
L 29.78125 35.203125 
L 44.28125 54.6875 
z
" id="DejaVuSans-78"/>
     </defs>
     <g transform="translate(18.855313 86.405469)rotate(-90)scale(0.1 -0.1)">
      <use xlink:href="#DejaVuSans-46"/>
      <use x="57.519531" xlink:href="#DejaVuSans-52"/>
      <use x="127.001953" xlink:href="#DejaVuSans-45"/>
      <use x="190.185547" xlink:href="#DejaVuSans-54"/>
      <use x="251.269531" xlink:href="#DejaVuSans-20"/>
      <use x="283.056641" xlink:href="#DejaVuSans-49"/>
      <use x="312.548828" xlink:href="#DejaVuSans-6e"/>
      <use x="375.927734" xlink:href="#DejaVuSans-64"/>
      <use x="439.404297" xlink:href="#DejaVuSans-65"/>
      <use x="500.912109" xlink:href="#DejaVuSans-78"/>
     </g>
    </g>
   </g>
   <g id="line2d_12">
    <path clip-path="url(#p37ee0686f2)" d="M 55.115455 61.114953 
L 55.470478 60.646914 
L 55.825502 54.160374 
L 56.53555 66.095368 
L 57.245598 96.278974 
L 57.600622 96.546269 
L 57.955646 93.028885 
L 58.31067 90.837066 
L 58.665694 92.094989 
L 59.020718 92.452292 
L 59.375742 88.992731 
L 59.730766 96.779198 
L 60.085789 90.740513 
L 60.440813 95.257253 
L 60.795837 91.114726 
L 61.505885 47.289801 
L 61.860909 45.396916 
L 62.215933 48.208423 
L 62.570957 46.313902 
L 62.925981 55.024446 
L 63.281005 52.068381 
L 63.636029 50.910285 
L 63.991053 47.039962 
L 64.346077 44.787593 
L 64.7011 44.722678 
L 65.056124 46.603017 
L 65.411148 46.659203 
L 65.766172 55.945795 
L 66.121196 49.490894 
L 66.831244 51.949462 
L 67.186268 48.476264 
L 67.541292 51.459603 
L 67.896316 53.019733 
L 68.25134 49.152138 
L 68.606364 46.555013 
L 68.961388 47.364535 
L 69.671435 50.383877 
L 70.026459 47.950947 
L 70.381483 53.047554 
L 70.736507 54.217651 
L 71.091531 56.189634 
L 71.446555 54.993898 
L 71.801579 56.325463 
L 72.156603 52.429502 
L 72.511627 57.119166 
L 72.866651 59.990132 
L 73.221675 75.108119 
L 73.576699 79.729595 
L 73.931722 73.635815 
L 74.286746 83.944674 
L 74.64177 81.379188 
L 74.996794 85.673909 
L 75.351818 79.073904 
L 75.706842 78.2562 
L 76.061866 71.99386 
L 76.41689 70.751211 
L 76.771914 77.049008 
L 77.126938 77.473953 
L 77.481962 75.950371 
L 77.836986 77.08883 
L 78.19201 73.563809 
L 78.547033 81.89523 
L 78.902057 72.472809 
L 79.257081 72.793017 
L 79.612105 76.998822 
L 79.967129 78.599319 
L 80.322153 73.414342 
L 80.677177 77.780524 
L 81.387225 48.212242 
L 81.742249 45.587296 
L 82.097273 47.552732 
L 82.452297 63.72408 
L 82.807321 72.865569 
L 83.162344 72.16842 
L 83.517368 69.609479 
L 83.872392 75.852727 
L 84.227416 73.28124 
L 84.58244 65.82971 
L 84.937464 50.17386 
L 85.292488 49.882563 
L 85.647512 44.152631 
L 86.002536 44.531208 
L 86.35756 47.060691 
L 86.712584 46.831036 
L 87.067608 43.656771 
L 87.422632 42.319751 
L 87.777656 47.841848 
L 88.132679 45.800041 
L 88.487703 47.583826 
L 89.552775 74.133856 
L 89.907799 71.002141 
L 90.262823 70.302264 
L 90.617847 81.009884 
L 90.972871 74.474794 
L 91.327895 75.359595 
L 91.682919 68.625397 
L 92.037943 75.780175 
L 92.392967 76.778986 
L 92.74799 71.830755 
L 93.103014 73.20487 
L 93.458038 72.042409 
L 93.813062 76.417319 
L 94.52311 71.454906 
L 95.233158 64.818898 
L 95.588182 71.474544 
L 95.943206 60.72983 
L 96.29823 38.560165 
L 97.008278 42.254836 
L 97.718325 52.127841 
L 98.428373 49.269421 
L 98.783397 39.365868 
L 99.493445 41.870804 
L 100.203493 50.347329 
L 100.558517 44.333737 
L 100.913541 45.422555 
L 101.268565 53.958539 
L 101.623589 46.965774 
L 101.978612 49.389976 
L 102.333636 49.564536 
L 102.68866 52.56315 
L 103.043684 51.041205 
L 103.398708 46.101702 
L 103.753732 47.035053 
L 104.46378 50.38715 
L 104.818804 45.139986 
L 105.173828 49.207234 
L 105.528852 73.612904 
L 105.883876 74.165495 
L 106.2389 68.927059 
L 106.593923 70.326267 
L 106.948947 44.317372 
L 107.303971 43.097634 
L 107.658995 51.83818 
L 108.369043 45.913505 
L 108.724067 47.685834 
L 109.079091 48.113506 
L 109.434115 45.0958 
L 109.789139 51.158487 
L 110.144163 46.269717 
L 110.499187 51.957645 
L 110.854211 52.021468 
L 111.209234 48.481719 
L 111.564258 55.561763 
L 111.919282 51.028658 
L 112.274306 52.542966 
L 112.62933 78.864432 
L 112.984354 90.647232 
L 113.339378 89.365308 
L 113.694402 72.819747 
L 114.049426 49.329971 
L 114.40445 41.136561 
L 114.759474 46.867584 
L 115.114498 43.080178 
L 116.179569 57.217901 
L 116.534593 54.450034 
L 116.889617 53.347579 
L 117.244641 47.922581 
L 117.599665 32.125447 
L 117.954689 38.56562 
L 118.309713 65.856985 
L 118.664737 56.635853 
L 119.019761 51.768902 
L 119.374785 45.369641 
L 119.729809 46.356996 
L 120.084833 51.180853 
L 120.439856 51.732353 
L 120.79488 51.735626 
L 121.149904 51.911277 
L 121.504928 51.397416 
L 121.859952 46.739937 
L 122.214976 46.335176 
L 122.925024 51.896003 
L 123.280048 30.191104 
L 123.635072 43.593493 
L 123.990096 68.053713 
L 124.34512 65.581507 
L 124.700144 58.036151 
L 125.055167 53.117378 
L 125.410191 53.215022 
L 125.765215 56.360375 
L 126.120239 77.189747 
L 126.475263 78.741149 
L 126.830287 77.986177 
L 127.185311 83.571006 
L 127.540335 56.858417 
L 127.895359 52.451868 
L 128.250383 55.554126 
L 128.605407 48.822657 
L 128.960431 81.777402 
L 129.315455 75.381415 
L 129.670478 54.681326 
L 130.025502 50.371331 
L 130.380526 49.92293 
L 131.090574 49.724368 
L 131.445598 54.546042 
L 131.800622 47.08142 
L 132.155646 51.607434 
L 132.51067 35.613374 
L 133.220718 58.464369 
L 133.575742 51.582886 
L 133.930766 54.801882 
L 134.285789 49.795283 
L 134.640813 51.079935 
L 134.995837 55.182641 
L 135.350861 49.952932 
L 135.705885 49.937658 
L 136.060909 74.123492 
L 136.770957 71.722201 
L 137.125981 69.014339 
L 137.481005 70.879949 
L 137.836029 74.259321 
L 138.191053 69.385824 
L 138.546077 68.631398 
L 138.9011 66.89889 
L 139.256124 68.619397 
L 139.966172 68.976154 
L 140.321196 72.068048 
L 140.67622 72.646278 
L 141.031244 75.306681 
L 141.386268 65.550414 
L 141.741292 47.788934 
L 142.096316 47.760568 
L 142.45134 81.314273 
L 142.806364 68.220636 
L 143.161388 47.618738 
L 143.516411 42.51504 
L 143.871435 48.420623 
L 144.226459 45.035795 
L 144.581483 54.904436 
L 144.936507 51.447057 
L 145.291531 51.779812 
L 145.646555 47.31544 
L 146.001579 68.394651 
L 146.356603 65.86244 
L 146.711627 65.79698 
L 147.066651 70.176254 
L 147.421675 52.139842 
L 147.776699 44.137357 
L 148.131722 49.962751 
L 148.486746 38.9862 
L 149.196794 54.358936 
L 149.551818 48.968305 
L 149.906842 51.173761 
L 150.261866 33.941416 
L 150.61689 42.017544 
L 150.971914 79.731232 
L 151.326938 72.551906 
L 151.681962 48.757742 
L 152.036986 38.040849 
L 152.39201 38.723269 
L 152.747033 33.40519 
L 153.102057 35.571916 
L 153.457081 41.884987 
L 153.812105 56.930423 
L 154.167129 51.079935 
L 154.522153 54.602229 
L 154.877177 62.311235 
L 155.232201 61.1335 
L 155.942249 55.459755 
L 156.297273 56.218545 
L 156.652297 56.161268 
L 157.007321 55.38393 
L 157.362344 54.217106 
L 157.717368 60.575999 
L 158.072392 55.177731 
L 158.427416 54.169102 
L 158.78244 59.313712 
L 159.137464 54.496402 
L 159.492488 59.877759 
L 159.847512 59.666651 
L 160.202536 45.416554 
L 160.55756 40.465596 
L 160.912584 79.214643 
L 161.267608 75.390688 
L 161.622632 59.359534 
L 161.977656 49.853651 
L 162.332679 48.507357 
L 162.687703 42.101005 
L 163.042727 45.753673 
L 163.397751 46.517919 
L 163.752775 47.562551 
L 164.107799 54.225288 
L 164.462823 51.172125 
L 164.817847 49.237236 
L 165.172871 53.132652 
L 165.527895 51.466695 
L 165.882919 53.84562 
L 166.237943 53.530321 
L 166.592967 56.19618 
L 166.94799 51.007384 
L 167.303014 63.821179 
L 167.658038 60.006497 
L 168.013062 66.661052 
L 168.368086 64.758893 
L 168.72311 70.602289 
L 169.078134 69.666757 
L 169.433158 80.40547 
L 169.788182 75.224311 
L 170.49823 82.978048 
L 170.853254 82.046879 
L 171.208278 85.055312 
L 171.918325 74.350966 
L 172.273349 79.133364 
L 172.628373 74.528798 
L 173.338421 54.982442 
L 173.693445 49.882563 
L 174.048469 61.380066 
L 174.403493 68.745407 
L 175.113541 74.588803 
L 175.468565 73.197233 
L 175.823589 74.709904 
L 176.178612 77.382854 
L 176.533636 78.699692 
L 176.88866 69.571294 
L 177.243684 73.571446 
L 177.598708 69.037795 
L 177.953732 72.898844 
L 178.308756 72.487537 
L 178.66378 68.738316 
L 179.018804 73.062494 
L 179.373828 75.323046 
L 179.728852 67.993708 
L 180.083876 68.996337 
L 180.4389 70.896314 
L 180.793923 73.569809 
L 181.148947 66.747786 
L 181.503971 70.960683 
L 181.858995 67.756416 
L 182.214019 69.153441 
L 182.569043 72.342434 
L 183.279091 75.88382 
L 183.634115 77.013005 
L 183.989139 69.360186 
L 184.344163 71.365989 
L 184.699187 65.544413 
L 185.054211 73.039038 
L 185.409234 73.063585 
L 185.764258 66.681235 
L 186.119282 66.302658 
L 186.474306 68.515206 
L 186.82933 60.172875 
L 187.184354 60.846022 
L 187.539378 42.681417 
L 187.894402 38.806731 
L 188.249426 45.878593 
L 188.60445 55.910883 
L 188.959474 56.580757 
L 189.314498 50.775001 
L 189.669522 47.864758 
L 190.024545 41.286574 
L 190.379569 44.303734 
L 190.734593 37.354064 
L 191.089617 45.835498 
L 191.444641 45.49347 
L 191.799665 58.089065 
L 192.154689 80.296915 
L 192.509713 75.183398 
L 193.219761 41.862622 
L 193.574785 48.890844 
L 193.929809 43.956251 
L 194.284833 43.432025 
L 194.639856 38.07467 
L 194.99488 37.058403 
L 195.704928 65.890806 
L 196.059952 69.544565 
L 196.414976 55.058812 
L 196.77 52.983185 
L 197.125024 51.992011 
L 197.480048 46.901405 
L 197.835072 48.660097 
L 198.190096 46.52501 
L 198.54512 54.553134 
L 198.900144 71.256344 
L 199.255167 71.729838 
L 199.610191 75.323046 
L 199.965215 75.355776 
L 200.320239 68.231546 
L 200.675263 76.424411 
L 201.385311 65.138016 
L 201.740335 46.566468 
L 202.095359 54.384029 
L 202.450383 50.854098 
L 202.805407 53.337214 
L 203.160431 49.071404 
L 203.515455 57.785221 
L 203.870478 63.135485 
L 204.225502 65.067101 
L 204.580526 45.994784 
L 204.93555 48.746286 
L 205.290574 56.296006 
L 205.645598 50.622806 
L 206.000622 55.015718 
L 206.355646 51.321046 
L 206.71067 55.211552 
L 207.065694 57.802677 
L 207.420718 58.293082 
L 207.775742 52.116931 
L 208.130766 51.35214 
L 208.485789 53.581053 
L 208.840813 53.023552 
L 209.195837 54.582591 
L 209.550861 53.4905 
L 209.905885 58.595289 
L 210.260909 53.617601 
L 210.615933 55.711776 
L 210.970957 49.806738 
L 211.681005 52.347677 
L 212.036029 53.065555 
L 212.391053 58.372179 
L 212.746077 50.465157 
L 213.1011 58.337267 
L 213.456124 77.750521 
L 213.811148 81.408644 
L 214.521196 51.142668 
L 214.87622 40.811443 
L 215.231244 40.123022 
L 215.586268 41.334578 
L 215.941292 40.102293 
L 216.296316 43.259647 
L 216.65134 41.87135 
L 217.006364 44.720496 
L 217.361388 45.632572 
L 217.716411 42.098823 
L 218.071435 42.408667 
L 218.426459 42.467036 
L 218.781483 50.09749 
L 219.136507 42.235198 
L 219.491531 47.548368 
L 219.846555 48.283157 
L 220.201579 51.316137 
L 220.556603 52.909542 
L 220.911627 67.550217 
L 221.266651 57.845772 
L 221.621675 65.658968 
L 221.976699 58.718026 
L 222.331722 63.283861 
L 222.686746 69.886593 
L 223.04177 63.053115 
L 223.396794 58.480734 
L 223.751818 62.297597 
L 224.106842 54.992807 
L 224.461866 39.6348 
L 224.81689 44.077352 
L 225.171914 72.828475 
L 225.526938 67.881881 
L 225.881962 56.947879 
L 226.236986 56.90533 
L 226.59201 56.659309 
L 226.947033 58.395636 
L 227.302057 60.968214 
L 227.657081 58.505281 
L 228.012105 58.324721 
L 228.367129 56.035257 
L 228.722153 57.377733 
L 229.077177 52.005649 
L 229.432201 64.413046 
L 229.787225 52.767167 
L 230.142249 55.326107 
L 230.497273 59.045872 
L 230.852297 68.905784 
L 231.207321 68.830505 
L 231.562344 75.962372 
L 231.917368 78.719329 
L 232.272392 57.040614 
L 232.627416 52.613881 
L 233.337464 57.644482 
L 233.692488 38.937651 
L 234.047512 55.021173 
L 234.402536 80.058532 
L 234.75756 71.261253 
L 235.112584 55.254647 
L 235.467608 49.413433 
L 235.822632 54.248199 
L 236.177656 56.953334 
L 236.532679 74.640626 
L 236.887703 69.262541 
L 237.242727 68.161177 
L 237.597751 72.781562 
L 238.307799 67.648952 
L 238.662823 67.845878 
L 239.017847 73.496167 
L 239.372871 71.554187 
L 239.727895 65.980813 
L 240.082919 68.560483 
L 240.437943 72.326615 
L 240.792967 69.820042 
L 241.14799 69.421282 
L 241.503014 67.662044 
L 241.858038 60.370891 
L 242.213062 68.225 
L 242.568086 64.981457 
L 242.92311 75.415236 
L 243.278134 66.219197 
L 243.633158 64.573969 
L 243.988182 68.879055 
L 244.343206 66.698146 
L 244.69823 73.646725 
L 245.053254 48.266792 
L 245.408278 44.651218 
L 245.763301 43.26292 
L 246.118325 48.677008 
L 246.473349 50.255685 
L 246.828373 54.150009 
L 247.183397 54.339298 
L 247.538421 47.453451 
L 247.893445 46.010058 
L 248.248469 43.458755 
L 248.603493 51.604161 
L 248.958517 53.825437 
L 249.313541 52.818444 
L 249.668565 50.823005 
L 250.023589 70.714117 
L 250.378612 74.81464 
L 250.733636 68.211908 
L 251.08866 74.310053 
L 251.443684 54.135281 
L 251.798708 48.194786 
L 252.86378 55.507213 
L 253.218804 55.728686 
L 253.573828 54.846613 
L 253.928852 50.415516 
L 254.283876 50.986655 
L 254.6389 51.217947 
L 254.993923 77.016824 
L 255.348947 76.0802 
L 255.703971 71.687834 
L 256.058995 73.159593 
L 256.414019 77.866713 
L 256.769043 78.124189 
L 257.124067 73.116499 
L 257.479091 74.839188 
L 257.834115 77.713427 
L 258.189139 73.544171 
L 258.544163 82.334903 
L 258.899187 73.00849 
L 259.254211 76.522055 
L 259.609234 70.745756 
L 260.319282 76.397681 
L 260.674306 76.578787 
L 261.02933 72.688827 
L 261.384354 75.023021 
L 261.739378 67.740051 
L 262.094402 70.266807 
L 262.449426 66.71342 
L 262.80445 66.031545 
L 263.159474 68.863781 
L 263.514498 69.264723 
L 263.869522 71.77566 
L 263.869522 71.77566 
" style="fill:none;stroke:#008000;stroke-linecap:square;"/>
   </g>
   <g id="line2d_13">
    <path clip-path="url(#p37ee0686f2)" d="M 55.115455 61.578083 
L 55.470478 57.789585 
L 55.825502 56.680038 
L 56.180526 56.489659 
L 56.53555 69.868592 
L 56.890574 87.679712 
L 57.245598 93.616389 
L 57.600622 95.595463 
L 57.955646 96.254972 
L 58.31067 96.474809 
L 59.020718 96.572453 
L 60.795837 96.585 
L 61.505885 52.002376 
L 61.860909 44.698131 
L 62.215933 43.30656 
L 62.570957 43.822603 
L 63.991053 47.676015 
L 64.7011 48.815019 
L 65.411148 49.422161 
L 66.121196 49.714003 
L 68.606364 50.401333 
L 69.316411 51.065207 
L 70.026459 52.222212 
L 71.091531 54.813883 
L 72.866651 59.522093 
L 73.221675 60.248699 
L 73.931722 75.003929 
L 74.286746 77.602691 
L 74.64177 78.299294 
L 74.996794 78.327115 
L 75.706842 77.778342 
L 76.771914 76.572241 
L 78.19201 74.555528 
L 81.032201 70.253169 
L 81.742249 51.246313 
L 82.097273 48.30825 
L 82.452297 47.891488 
L 83.162344 66.00427 
L 83.517368 69.030158 
L 83.872392 69.618207 
L 84.227416 69.346003 
L 84.58244 68.730679 
L 85.292488 48.38462 
L 85.647512 44.977972 
L 86.002536 44.283005 
L 86.35756 44.56612 
L 87.067608 46.216257 
L 88.487703 50.957743 
L 88.842727 52.151843 
L 89.552775 69.960236 
L 89.907799 73.114862 
L 90.262823 74.011119 
L 90.617847 74.126219 
L 90.972871 73.959296 
L 91.682919 73.288877 
L 92.392967 72.297158 
L 93.458038 70.415729 
L 94.878134 67.336381 
L 95.943206 64.952 
L 96.653254 43.726595 
L 97.008278 40.612336 
L 97.363301 40.424138 
L 97.718325 41.192748 
L 99.138421 45.207628 
L 99.848469 46.541375 
L 100.558517 47.488363 
L 101.623589 48.464263 
L 102.68866 49.203961 
L 104.108756 49.835104 
L 105.173828 50.072397 
L 105.883876 66.998171 
L 106.2389 69.522745 
L 106.593923 69.685849 
L 107.658995 46.232622 
L 108.014019 45.368005 
L 108.369043 45.570385 
L 108.724067 46.32263 
L 109.434115 48.932302 
L 110.499187 54.50022 
L 111.564258 60.281429 
L 112.274306 63.064025 
L 112.62933 55.644679 
L 112.984354 45.687122 
L 113.339378 43.428752 
L 113.694402 43.221462 
L 114.049426 43.283649 
L 114.40445 43.170185 
L 115.114498 60.910936 
L 115.469522 63.126212 
L 115.824545 62.778728 
L 117.244641 58.108703 
L 117.954689 35.469907 
L 118.309713 32.289642 
L 118.664737 32.090535 
L 119.374785 53.659605 
L 119.729809 56.964244 
L 120.084833 57.357004 
L 120.439856 56.80714 
L 121.149904 55.347382 
L 121.504928 54.915891 
L 121.859952 54.804064 
L 122.214976 55.005899 
L 122.925024 56.071806 
L 123.635072 37.017491 
L 123.990096 35.458452 
L 124.34512 36.625276 
L 125.055167 58.835309 
L 125.410191 62.595986 
L 125.765215 63.421327 
L 126.475263 75.815633 
L 126.830287 77.407402 
L 127.185311 77.166291 
L 128.250383 55.481029 
L 128.605407 53.799253 
L 128.960431 60.104687 
L 129.315455 68.928696 
L 129.670478 63.888821 
L 130.025502 54.596774 
L 130.380526 51.716534 
L 130.73555 51.071207 
L 131.090574 51.203764 
L 132.155646 52.434957 
L 132.865694 31.68741 
L 133.220718 38.646899 
L 133.575742 50.875918 
L 133.930766 54.806246 
L 134.285789 55.910338 
L 134.640813 56.030348 
L 135.705885 55.287377 
L 136.060909 61.945204 
L 136.415933 70.74521 
L 136.770957 73.301969 
L 137.125981 73.836013 
L 137.481005 73.768917 
L 138.546077 73.258874 
L 139.256124 73.276876 
L 140.321196 73.792373 
L 141.386268 74.23041 
L 142.096316 36.873479 
L 142.45134 31.890882 
L 142.806364 31.729959 
L 143.516411 53.836347 
L 143.871435 57.214628 
L 144.226459 57.509744 
L 144.581483 56.710586 
L 145.646555 53.137561 
L 146.001579 59.424994 
L 146.356603 68.133356 
L 146.711627 70.300082 
L 147.066651 70.34645 
L 147.776699 51.14485 
L 148.131722 48.367709 
L 148.486746 48.517722 
L 148.84177 49.817103 
L 149.906842 55.242646 
L 150.261866 47.758386 
L 150.61689 37.767553 
L 150.971914 36.474718 
L 151.681962 39.010202 
L 152.036986 40.166662 
L 152.39201 40.935817 
L 152.747033 41.340578 
L 153.102057 41.470407 
L 153.457081 41.422403 
L 154.167129 59.978131 
L 154.522153 62.58453 
L 154.877177 62.597077 
L 155.587225 60.764742 
L 156.297273 58.968956 
L 156.652297 58.375452 
L 157.007321 58.024696 
L 157.362344 57.935234 
L 157.717368 58.127795 
L 158.072392 58.587652 
L 158.78244 60.123234 
L 159.847512 62.97129 
L 160.55756 45.714397 
L 160.912584 44.12481 
L 161.267608 44.950697 
L 162.332679 48.631186 
L 163.042727 49.951296 
L 163.752775 50.525162 
L 164.817847 50.921195 
L 166.94799 51.466695 
L 167.658038 67.923884 
L 168.013062 70.505736 
L 168.368086 70.847764 
L 168.72311 70.434275 
L 169.078134 69.770402 
L 169.433158 73.945659 
L 169.788182 79.757961 
L 170.143206 81.206264 
L 170.49823 81.173534 
L 171.208278 79.885063 
L 172.628373 76.440776 
L 173.338421 58.78185 
L 173.693445 55.524669 
L 174.048469 54.617503 
L 174.403493 61.415524 
L 174.758517 70.53792 
L 175.113541 73.343427 
L 175.468565 74.043849 
L 175.823589 74.043849 
L 176.533636 73.491257 
L 179.373828 70.797033 
L 180.4389 70.28099 
L 181.858995 69.93787 
L 182.924067 69.709306 
L 183.989139 69.208537 
L 184.699187 68.751408 
L 185.764258 67.718231 
L 186.82933 66.41394 
L 187.539378 46.245169 
L 187.894402 43.396568 
L 188.249426 43.41566 
L 188.60445 44.46302 
L 189.314498 47.621465 
L 191.089617 57.18899 
L 191.444641 49.991117 
L 191.799665 40.460141 
L 192.154689 39.516426 
L 192.509713 40.92818 
L 193.219761 62.085398 
L 193.219761 62.085398 
" style="fill:none;stroke:#ff0000;stroke-linecap:square;stroke-width:2;"/>
   </g>
   <g id="line2d_14">
    <path clip-path="url(#p37ee0686f2)" d="M 193.574785 62.085398 
L 193.929809 65.485499 
L 194.639856 48.709192 
L 195.349904 63.352049 
L 196.059952 78.553497 
L 196.414976 75.297953 
L 196.77 68.993065 
L 197.125024 66.476127 
L 197.480048 65.359489 
L 198.190096 64.372134 
L 198.900144 76.741892 
L 199.255167 78.579681 
L 199.610191 78.914618 
L 199.965215 78.694236 
L 200.675263 77.766341 
L 201.030287 77.235569 
L 201.740335 61.353337 
L 202.095359 58.24726 
L 202.450383 57.180807 
L 202.805407 56.860053 
L 203.160431 56.809867 
L 203.870478 71.952947 
L 204.225502 67.408387 
L 204.580526 59.626829 
L 204.93555 56.892238 
L 205.290574 56.006346 
L 205.645598 55.793055 
L 206.355646 55.929976 
L 209.195837 56.897147 
L 211.681005 57.45083 
L 212.391053 57.571385 
L 213.1011 37.510623 
L 213.456124 35.007323 
L 213.811148 35.29262 
L 214.521196 37.93884 
L 215.586268 42.015907 
L 216.65134 45.240903 
L 217.716411 47.754567 
L 218.781483 49.735278 
L 219.846555 51.311773 
L 220.201579 51.765083 
L 220.911627 68.539209 
L 221.266651 71.146153 
L 221.621675 71.783297 
L 221.976699 71.701472 
L 222.686746 70.93068 
L 223.751818 69.56093 
L 224.461866 51.320501 
L 224.81689 48.29734 
L 225.171914 47.694017 
L 225.881962 65.465861 
L 226.236986 68.329191 
L 226.59201 69.093982 
L 226.947033 69.093982 
L 227.657081 68.452474 
L 230.142249 65.826982 
L 230.852297 77.686698 
L 231.207321 79.437207 
L 231.562344 79.743778 
L 232.627416 62.812549 
L 232.98244 61.64027 
L 233.692488 41.34276 
L 234.047512 38.600532 
L 234.402536 38.60326 
L 235.112584 59.385173 
L 235.467608 62.876918 
L 235.822632 63.973919 
L 236.532679 76.92518 
L 236.887703 78.808246 
L 237.242727 79.161184 
L 237.597751 78.948439 
L 238.307799 78.025453 
L 243.633158 70.226985 
L 244.343206 69.315455 
L 245.053254 50.623897 
L 245.408278 47.554369 
L 245.763301 46.97232 
L 246.118325 47.261981 
L 248.958517 51.742718 
L 249.313541 52.165481 
L 250.023589 69.039432 
L 250.378612 71.656195 
L 250.733636 72.292248 
L 251.443684 55.279194 
L 251.798708 52.204756 
L 252.153732 51.399598 
L 252.508756 51.40669 
L 253.218804 52.058017 
L 254.283876 53.152835 
L 254.993923 69.67003 
L 255.348947 72.221879 
L 255.703971 72.829566 
L 256.058995 72.726466 
L 256.769043 71.918036 
L 259.609234 68.263731 
L 261.384354 66.334843 
L 263.159474 64.710344 
L 263.514498 64.421229 
L 264.224545 44.695949 
L 264.224545 44.695949 
" style="fill:none;stroke:#000000;stroke-linecap:square;stroke-width:2;"/>
   </g>
   <g id="line2d_15">
    <path clip-path="url(#p37ee0686f2)" d="M 193.574785 102.04 
L 193.574785 14.76 
" style="fill:none;stroke:#000000;stroke-dasharray:11.1,4.8;stroke-dashoffset:0;stroke-width:3;"/>
   </g>
   <g id="patch_3">
    <path d="M 44.66 102.04 
L 44.66 14.76 
" style="fill:none;stroke:#000000;stroke-linecap:square;stroke-linejoin:miter;stroke-width:0.8;"/>
   </g>
   <g id="patch_4">
    <path d="M 274.68 102.04 
L 274.68 14.76 
" style="fill:none;stroke:#000000;stroke-linecap:square;stroke-linejoin:miter;stroke-width:0.8;"/>
   </g>
   <g id="patch_5">
    <path d="M 44.66 102.04 
L 274.68 102.04 
" style="fill:none;stroke:#000000;stroke-linecap:square;stroke-linejoin:miter;stroke-width:0.8;"/>
   </g>
   <g id="patch_6">
    <path d="M 44.66 14.76 
L 274.68 14.76 
" style="fill:none;stroke:#000000;stroke-linecap:square;stroke-linejoin:miter;stroke-width:0.8;"/>
   </g>
  </g>
 </g>
 <defs>
  <clipPath id="p37ee0686f2">
   <rect height="87.28" width="230.02" x="44.66" y="14.76"/>
  </clipPath>
 </defs>
</svg>
